# xmcd
#
# Track frame offsets:
#	150
#	16673
#	37086
#	50087
#	70039
#	90081
#	107654
#	122987
#	139658
#	157997
#	171825
#	189783
#	205907
#	225396
#	240585
#	264200
#	283216
#	297248
#	312880
#	325903
#
# Disc length: 4591 seconds
#
# Revision: 1
# Processed by: cddbd v1.5.2PL0 Copyright (c) Steve Scherf et al.
# Submitted via: audiograbber 1.80
#
DISCID=0d11ed14
DTITLE=Various Artist - Latin and Spanish Ballads for Dario
DYEAR=1900
DGENRE=
TTITLE0=Laura Fygi - Noche de Ronda
TTITLE1=Pablo Baladas - Pista 02
TTITLE2=Eydie Gorme - Sabor A Mi
TTITLE3=Pablo Baladas - Pista 03
TTITLE4=Mickey Taveras - Y Que Me Pasa
TTITLE5=Pablo Baladas - Pista 04
TTITLE6=Laura Fygi - Cuando Vuelva a Tu Lado
TTITLE7=Laura Fygi - La Puerta
TTITLE8=Pablo Baladas - Pista 07
TTITLE9=Laura Fygi - Besame Mucho
TTITLE10=Pablo Baladas - Pista 08
TTITLE11=Laura Fygi - Historia De Un Amor
TTITLE12=Pablo Baladas - Pista 09
TTITLE13=Laura Fygi - Perfidia
TTITLE14=Pablo Baladas - Pista 11
TTITLE15=Pablo Baladas - Pista 12
TTITLE16=Laura Fygi - Piel Canela
TTITLE17=Laura Fygi - Quizas,Quizas,Quizas
TTITLE18=Laura Fygi - Solamente Una Vez
TTITLE19=Laura Fygi - Triste  -  Laura Fygi
EXTD=
EXTT0=
EXTT1=
EXTT2=
EXTT3=
EXTT4=
EXTT5=
EXTT6=
EXTT7=
EXTT8=
EXTT9=
EXTT10=
EXTT11=
EXTT12=
EXTT13=
EXTT14=
EXTT15=
EXTT16=
EXTT17=
EXTT18=
EXTT19=
PLAYORDER=
